<svg width="1366" height="640" viewBox="0 0 1366 640" fill="none" xmlns="http://www.w3.org/2000/svg">
<g clip-path="url(#clip0_4021_163)">
<rect width="1366" height="640" fill="#F6182D"/>
<g filter="url(#filter0_f_4021_163)">
<path d="M186.722 507.891C185.217 509.396 183.336 510.149 181.078 510.149C178.82 510.149 175.434 508.644 170.918 505.634C169.413 504.128 168.661 501.871 168.661 498.86C168.661 494.345 169.789 490.958 172.047 488.701C192.367 468.381 209.3 446.18 222.846 422.098C237.145 398.016 248.81 369.418 257.841 336.305C266.871 302.439 273.268 261.8 277.031 214.388C280.794 166.976 282.675 110.156 282.675 43.9299C282.675 -15.5234 281.547 -66.6984 279.289 -109.595C277.784 -152.492 274.773 -180.337 270.258 -193.131C269.505 -197.646 270.258 -201.785 272.516 -205.548C275.526 -208.558 278.913 -209.311 282.675 -207.806C292.459 -205.548 305.629 -201.409 322.186 -195.388C338.742 -190.12 355.299 -184.1 371.855 -177.327C389.165 -171.306 403.463 -165.662 414.752 -160.394C420.773 -157.384 427.922 -155.878 436.2 -155.878H527.638C536.669 -155.878 542.69 -158.889 545.7 -164.909C547.958 -168.672 550.968 -173.94 554.731 -180.713C559.246 -188.239 562.633 -194.26 564.89 -198.775C568.653 -204.796 572.793 -207.806 577.308 -207.806C578.813 -207.806 580.318 -207.43 581.823 -206.677C583.329 -206.677 585.21 -206.301 587.468 -205.548C597.251 -202.538 608.916 -197.646 622.462 -190.873C636.761 -184.852 651.06 -178.456 665.359 -171.682C679.658 -165.662 690.947 -160.018 699.225 -154.749C707.503 -150.234 711.642 -143.461 711.642 -134.43C711.642 -125.399 706.374 -118.626 695.838 -114.111C694.333 -113.358 692.452 -112.605 690.194 -111.853C688.689 -111.1 687.184 -110.348 685.678 -109.595C675.142 -102.822 669.874 -89.2756 669.874 -68.9561V99.244C669.874 124.079 669.874 152.3 669.874 183.909C670.627 214.764 671.003 245.243 671.003 275.346C671.756 304.697 672.132 329.531 672.132 349.851C672.885 370.17 673.261 382.212 673.261 385.974C673.261 416.077 661.972 441.289 639.395 461.608C617.571 482.68 581.447 498.108 531.025 507.891H526.509C515.973 507.891 509.576 502.623 507.319 492.087C500.545 452.953 489.633 426.237 474.582 411.938C459.53 397.639 435.448 388.232 402.335 383.717C394.056 382.212 390.67 378.072 392.175 371.299C392.175 363.774 395.938 360.011 403.463 360.011H510.705C522.746 360.011 531.025 357.377 535.54 352.109C540.056 346.841 542.313 340.067 542.313 331.789V197.455C542.313 191.434 540.432 186.543 536.669 182.78C532.906 179.017 528.014 177.135 521.994 177.135H421.525C407.979 177.135 399.701 183.909 396.69 197.455C384.649 274.97 360.191 337.433 323.314 384.846C287.191 432.258 241.66 473.273 186.722 507.891ZM-271.595 507.891C-274.605 509.396 -277.239 510.149 -279.497 510.149C-283.26 510.149 -286.27 509.02 -288.528 506.762C-293.796 501.494 -294.172 496.226 -289.657 490.958C-271.595 468.381 -256.167 444.675 -243.373 419.84C-230.58 395.005 -220.42 366.031 -212.894 332.918C-204.616 299.805 -198.971 259.918 -195.961 213.259C-192.198 166.599 -190.317 110.156 -190.317 43.9299C-190.317 -15.5234 -191.446 -66.6984 -193.703 -109.595C-195.961 -152.492 -198.971 -180.337 -202.734 -193.131C-204.239 -197.646 -203.863 -201.785 -201.605 -205.548C-197.843 -207.806 -194.08 -208.558 -190.317 -207.806C-181.286 -205.548 -168.869 -201.409 -153.064 -195.388C-136.508 -190.12 -119.951 -184.1 -103.395 -177.327C-86.0855 -171.306 -71.7866 -165.662 -60.498 -160.394C-54.4774 -157.384 -47.3279 -155.878 -39.0496 -155.878H47.8726C56.1509 -155.878 62.1715 -158.889 65.9344 -164.909C67.4395 -168.672 70.0735 -173.94 73.8364 -180.713C78.3518 -188.239 82.1147 -194.26 85.125 -198.775C87.3827 -204.796 91.1456 -207.806 96.4136 -207.806C98.6713 -207.806 102.058 -207.053 106.573 -205.548C116.357 -202.538 128.022 -197.646 141.568 -190.873C155.867 -184.852 169.789 -178.456 183.336 -171.682C197.635 -165.662 208.923 -160.018 217.202 -154.749C225.48 -150.234 229.619 -143.461 229.619 -134.43C229.619 -125.399 224.351 -118.626 213.815 -114.111C210.805 -113.358 207.042 -111.477 202.526 -108.466C191.99 -100.94 186.722 -87.7705 186.722 -68.9561L187.851 99.244C187.851 112.038 187.851 129.347 187.851 151.172C188.604 172.244 188.98 195.197 188.98 220.032C189.733 244.114 190.109 267.82 190.109 291.15C190.109 313.727 190.109 332.918 190.109 348.722C190.862 363.774 191.238 372.804 191.238 375.815C191.238 405.918 179.949 431.129 157.372 451.448C135.547 472.52 100.176 487.948 51.2592 497.732H46.7437C35.4551 497.732 29.0583 492.464 27.5531 481.928C20.78 442.794 9.49136 416.077 -6.31268 401.778C-21.3642 387.48 -45.4465 378.072 -78.5597 373.557C-85.3329 372.052 -88.7195 367.913 -88.7195 361.14C-88.7195 353.614 -84.5803 349.851 -76.302 349.851H29.8108C42.6046 349.851 50.8829 347.217 54.6457 341.949C59.1612 336.681 61.4189 329.908 61.4189 321.629V197.455C61.4189 191.434 59.5375 186.543 55.7746 182.78C52.0118 179.017 47.12 177.135 41.0994 177.135H-53.7248C-66.5186 177.135 -74.4206 183.909 -77.4309 197.455C-85.7092 247.877 -98.8792 291.15 -116.941 327.274C-135.003 363.397 -157.204 395.758 -183.544 424.356C-209.131 452.953 -238.482 480.799 -271.595 507.891ZM-150.807 -210.064C-171.126 -210.064 -181.286 -219.471 -181.286 -238.285C-181.286 -242.801 -180.91 -252.584 -180.157 -267.636C-179.405 -283.44 -178.652 -301.878 -177.899 -322.95C-177.147 -344.022 -176.771 -365.094 -176.771 -386.166C-176.771 -423.042 -180.157 -448.253 -186.93 -461.799C-189.188 -467.067 -189.188 -471.583 -186.93 -475.346C-184.673 -479.109 -180.533 -480.99 -174.513 -480.99C-166.235 -480.99 -154.57 -479.861 -139.518 -477.603C-124.467 -476.098 -108.286 -474.217 -90.9772 -471.959C-73.668 -469.701 -57.864 -467.444 -43.5651 -465.186C-28.5136 -462.928 -17.225 -461.047 -9.69925 -459.542C-0.668376 -457.284 3.84706 -451.64 3.84706 -442.609C3.84706 -430.568 -2.17353 -423.794 -14.2147 -422.289C-30.7713 -420.032 -39.0496 -412.13 -39.0496 -398.583V-315.048C-39.0496 -309.78 -37.1682 -304.888 -33.4053 -300.372C-28.8899 -296.61 -23.9982 -294.728 -18.7302 -294.728H141.568C147.589 -294.728 152.48 -296.61 156.243 -300.372C160.759 -304.888 163.016 -309.78 163.016 -315.048V-395.197C163.016 -421.537 161.887 -442.233 159.63 -457.284C157.372 -473.088 154.738 -484.377 151.728 -491.15C149.47 -496.418 149.094 -500.933 150.599 -504.696C152.857 -508.459 156.996 -510.34 163.016 -510.34C171.295 -510.34 182.96 -509.212 198.011 -506.954C213.062 -505.449 229.243 -503.567 246.552 -501.31C264.614 -499.052 281.17 -496.794 296.222 -494.536C311.273 -492.279 322.562 -490.397 330.088 -488.892C338.366 -486.634 342.505 -480.99 342.505 -471.959C342.505 -459.918 336.861 -453.145 325.572 -451.64C309.016 -449.382 300.737 -441.48 300.737 -427.934V-315.048C300.737 -309.78 302.619 -304.888 306.382 -300.372C310.897 -296.61 315.789 -294.728 321.057 -294.728H477.968C483.989 -294.728 488.881 -296.61 492.643 -300.372C496.406 -304.888 498.288 -309.78 498.288 -315.048V-386.166C498.288 -423.042 494.901 -448.253 488.128 -461.799C485.87 -467.067 485.87 -471.583 488.128 -475.346C490.386 -479.109 494.525 -480.99 500.545 -480.99C508.824 -480.99 520.112 -479.861 534.411 -477.603C549.463 -476.098 565.643 -474.217 582.952 -471.959C600.261 -469.701 616.066 -467.444 630.364 -465.186C645.416 -462.928 656.704 -461.047 664.23 -459.542C670.251 -458.789 674.014 -456.155 675.519 -451.64C677.024 -447.877 677.777 -443.738 677.777 -439.222C677.024 -429.439 671.003 -423.794 659.715 -422.289C643.911 -420.032 636.009 -412.13 636.009 -398.583C636.009 -381.274 636.385 -362.46 637.138 -342.14C637.89 -321.821 638.643 -303.383 639.395 -286.826C640.148 -271.022 640.524 -260.486 640.524 -255.218C640.524 -246.94 634.504 -239.79 622.462 -233.77C611.174 -227.749 596.875 -222.857 579.566 -219.095C563.009 -216.084 546.076 -214.579 528.767 -214.579C509.953 -214.579 499.793 -223.234 498.288 -240.543C496.783 -254.089 489.633 -260.862 476.839 -260.862H-14.2147C-26.2559 -260.862 -34.9105 -255.218 -40.1785 -243.929C-45.4465 -233.393 -59.7454 -225.115 -83.0752 -219.095C-105.652 -213.074 -128.23 -210.064 -150.807 -210.064ZM424.912 143.27H521.994C528.014 143.27 532.906 141.388 536.669 137.625C540.432 133.11 542.313 128.218 542.313 122.95V43.9299C542.313 37.9093 540.432 33.0175 536.669 29.2547C532.906 24.7392 528.014 22.4815 521.994 22.4815H428.298C423.03 22.4815 418.139 24.7392 413.623 29.2547C409.86 33.0175 407.979 37.9093 407.979 43.9299V56.3473C407.979 68.3885 407.603 80.0534 406.85 91.342C406.85 101.878 406.474 112.414 405.721 122.95C405.721 136.496 412.118 143.27 424.912 143.27ZM-50.3382 143.27H41.0994C47.12 143.27 52.0118 141.388 55.7746 137.625C59.5375 133.11 61.4189 128.218 61.4189 122.95V43.9299C61.4189 37.9093 59.5375 33.0175 55.7746 29.2547C52.0118 24.7392 47.12 22.4815 41.0994 22.4815H-46.9517C-52.2197 22.4815 -57.1114 24.7392 -61.6268 29.2547C-65.3897 33.0175 -67.2711 37.9093 -67.2711 43.9299V56.3473C-67.2711 68.3885 -67.6474 80.0534 -68.4 91.342C-68.4 101.878 -68.7763 112.414 -69.5289 122.95C-69.5289 136.496 -63.132 143.27 -50.3382 143.27ZM428.298 -11.3843H521.994C528.014 -11.3843 532.906 -13.2657 536.669 -17.0286C540.432 -21.544 542.313 -26.4357 542.313 -31.7037V-100.564C542.313 -106.585 540.432 -111.477 536.669 -115.239C532.906 -119.002 528.014 -120.884 521.994 -120.884H428.298C423.03 -120.884 418.139 -119.002 413.623 -115.239C409.86 -111.477 407.979 -106.585 407.979 -100.564V-31.7037C407.979 -26.4357 409.86 -21.544 413.623 -17.0286C418.139 -13.2657 423.03 -11.3843 428.298 -11.3843ZM-46.9517 -11.3843H41.0994C47.12 -11.3843 52.0118 -13.2657 55.7746 -17.0286C59.5375 -21.544 61.4189 -26.4357 61.4189 -31.7037V-100.564C61.4189 -106.585 59.5375 -111.477 55.7746 -115.239C52.0118 -119.002 47.12 -120.884 41.0994 -120.884H-46.9517C-52.2197 -120.884 -57.1114 -119.002 -61.6268 -115.239C-65.3897 -111.477 -67.2711 -106.585 -67.2711 -100.564V-31.7037C-67.2711 -26.4357 -65.3897 -21.544 -61.6268 -17.0286C-57.1114 -13.2657 -52.2197 -11.3843 -46.9517 -11.3843Z" fill="#FBFBFB"/>
</g>
<g filter="url(#filter1_f_4021_163)">
<path d="M698.592 680.426C694.078 681.931 691.069 682.683 689.565 682.683C683.547 682.683 680.162 680.802 679.41 677.041C673.392 666.51 665.493 651.841 655.714 633.035C646.687 613.476 637.66 593.918 628.633 574.36C620.358 554.801 613.964 539.38 609.451 528.097C607.946 522.079 607.946 518.317 609.451 516.813C610.203 514.556 613.588 512.299 619.606 510.043L655.714 503.273L704.234 493.117C709.499 491.613 714.013 488.604 717.774 484.09C721.535 479.577 723.416 474.311 723.416 468.293V176.046C723.416 170.028 721.159 165.138 716.646 161.377C712.884 156.864 708.371 154.983 703.105 155.735C690.317 155.735 677.905 156.111 665.869 156.864C653.833 156.864 643.678 157.24 635.403 157.992H633.146C621.111 157.992 613.212 151.598 609.451 138.81L607.194 132.039C608.699 122.26 613.212 117.371 620.734 117.371C631.266 117.371 644.054 118.123 659.099 119.627C674.144 120.38 688.813 120.756 703.105 120.756C708.371 120.756 712.884 118.875 716.646 115.114C721.159 110.6 723.416 105.711 723.416 100.445V-65.4249C723.416 -89.4968 722.288 -108.679 720.031 -122.972C717.774 -137.264 715.517 -147.044 713.261 -152.309C710.252 -157.575 709.876 -161.712 712.132 -164.721C714.389 -168.483 718.15 -170.363 723.416 -170.363C733.195 -170.363 748.24 -168.859 768.551 -165.85C788.861 -163.593 809.172 -160.96 829.483 -157.951C850.545 -155.694 865.59 -153.438 874.617 -151.181C882.14 -148.172 885.901 -142.906 885.901 -135.384C885.901 -123.348 880.635 -117.33 870.104 -117.33C855.059 -115.073 847.536 -107.927 847.536 -95.8909V101.574C847.536 106.087 849.417 109.096 853.178 110.6C857.692 111.353 861.077 109.848 863.334 106.087L892.671 60.9523C896.432 54.9343 900.946 51.9253 906.212 51.9253C909.973 51.9253 913.734 53.4298 917.495 56.4388C923.513 61.7045 930.283 67.7225 937.806 74.4927C946.081 81.2629 953.979 88.4092 961.502 95.9317C963.006 97.4362 964.887 98.1884 967.143 98.1884C973.161 98.1884 976.17 95.1794 976.17 89.1615C975.418 65.0896 974.666 45.5313 973.914 30.4863C973.161 15.4414 971.281 4.53387 968.272 -2.23634C966.767 -6.7498 967.52 -10.511 970.529 -13.52C973.537 -17.2812 977.299 -18.0335 981.812 -15.7768C990.839 -13.52 1002.12 -9.38267 1015.66 -3.36469C1029.96 1.901 1044.25 7.54284 1058.54 13.5608C1073.59 19.5788 1086 25.2206 1095.78 30.4863C1104.8 34.2475 1112.7 36.1281 1119.47 36.1281H1186.05C1192.06 36.1281 1196.95 34.2475 1200.72 30.4863C1204.48 25.9729 1206.36 21.0833 1206.36 15.8176V-25.9321C1206.36 -31.95 1204.48 -36.8396 1200.72 -40.6008C1196.95 -44.362 1192.06 -46.2427 1186.05 -46.2427H1056.28C1035.22 -46.2427 1015.66 -45.8665 997.609 -45.1143C980.308 -44.3621 966.015 -43.6098 954.731 -42.8576H952.475C940.439 -42.8576 932.54 -48.8755 928.779 -60.9115L925.394 -74.4519C925.394 -83.4788 930.66 -87.9923 941.191 -87.9923C953.979 -86.4878 970.905 -84.6072 991.967 -82.3504C1013.78 -80.846 1035.22 -80.0937 1056.28 -80.0937H1186.05C1192.06 -80.0937 1196.95 -82.3505 1200.72 -86.8639C1205.23 -91.3774 1207.11 -96.267 1206.36 -101.533C1206.36 -120.339 1205.23 -135.384 1202.97 -146.667C1201.47 -157.951 1199.59 -166.226 1197.33 -171.491C1194.32 -176.757 1193.95 -181.647 1196.2 -186.16C1197.71 -190.674 1201.84 -192.554 1208.61 -191.802C1219.15 -191.802 1234.57 -190.674 1254.88 -188.417C1275.19 -186.16 1295.5 -183.527 1315.81 -180.518C1336.12 -177.509 1351.16 -174.877 1360.94 -172.62C1369.97 -169.611 1374.48 -163.969 1374.48 -155.694C1374.48 -142.906 1368.47 -135.76 1356.43 -134.255C1348.16 -133.503 1342.51 -131.246 1339.5 -127.485C1336.5 -123.724 1334.99 -118.082 1334.99 -110.56V-101.533C1334.99 -96.267 1336.87 -91.3774 1340.63 -86.8639C1345.15 -82.3505 1350.04 -80.0937 1355.3 -80.0937H1450.08C1460.62 -80.0937 1468.51 -83.855 1473.78 -91.3774C1478.29 -97.3954 1485.06 -106.798 1494.09 -119.587C1503.12 -132.375 1509.14 -141.402 1512.15 -146.667C1515.91 -151.181 1520.04 -153.438 1524.56 -153.438C1528.32 -153.438 1532.46 -152.309 1536.97 -150.053C1545.24 -145.539 1555.4 -138.393 1567.44 -128.614C1579.47 -118.834 1591.13 -108.679 1602.41 -98.1476C1613.7 -87.6162 1621.97 -78.9653 1627.24 -72.1951C1630.25 -69.1862 1631.75 -65.0488 1631.75 -59.7831C1631.75 -50.7561 1627.61 -46.2427 1619.34 -46.2427H1355.3C1350.04 -46.2427 1345.15 -44.362 1340.63 -40.6008C1336.87 -36.8396 1334.99 -31.95 1334.99 -25.9321V15.8176C1334.99 21.0833 1336.87 25.9729 1340.63 30.4863C1345.15 34.2475 1350.04 36.1281 1355.3 36.1281H1448.96C1457.23 36.1281 1462.87 33.1192 1465.88 27.1013C1468.14 23.34 1471.15 18.0743 1474.91 11.3041C1479.42 4.53389 1482.81 -1.10796 1485.06 -5.62147C1487.32 -10.8872 1491.08 -13.52 1496.35 -13.52C1497.85 -13.52 1499.36 -13.1439 1500.86 -12.3917C1502.37 -12.3917 1504.25 -12.0155 1506.5 -11.2633C1520.04 -6.7498 1537.72 0.772672 1559.54 11.3041C1582.1 21.0833 1599.41 29.7341 1611.44 37.2566C1619.72 41.77 1623.85 48.1641 1623.85 56.4388C1623.85 64.7135 1618.96 71.1076 1609.18 75.6211L1600.16 79.0062C1588.87 85.7764 1583.23 98.9407 1583.23 118.499C1583.23 126.774 1583.61 138.81 1584.36 154.607C1585.11 170.404 1585.87 186.577 1586.62 203.127C1587.37 219.676 1588.12 234.345 1588.87 247.133C1589.63 259.921 1590 267.444 1590 269.7C1590 277.223 1584.74 283.993 1574.21 290.011C1564.43 295.277 1552.01 299.414 1536.97 302.423C1521.92 305.432 1506.88 306.936 1491.83 306.936C1476.04 306.936 1467.01 300.542 1464.75 287.754C1463.25 274.966 1455.73 268.572 1442.19 268.572H1114.96C1102.17 268.572 1094.65 274.966 1092.39 287.754C1091.64 297.533 1080.73 305.808 1059.67 312.578C1038.61 318.596 1017.17 321.605 995.353 321.605C978.803 321.605 970.529 313.331 970.529 296.781C970.529 293.02 970.905 279.48 971.657 256.16C973.161 232.84 974.29 206.136 975.042 176.046C975.042 170.028 973.161 165.138 969.4 161.377C965.639 157.616 960.749 155.735 954.731 155.735H867.847C862.581 155.735 857.692 157.616 853.178 161.377C849.417 165.138 847.536 170.028 847.536 176.046V443.469C847.536 448.735 849.417 453.248 853.178 457.009C857.692 460.018 862.581 461.147 867.847 460.395L1012.28 431.057H1014.53C1020.55 431.057 1024.31 434.066 1025.82 440.084C1026.57 440.836 1026.95 442.341 1026.95 444.597C1026.95 449.863 1024.69 453.248 1020.18 454.753C1003.63 463.78 981.812 476.568 954.731 493.117C927.651 508.914 899.065 525.84 868.975 543.894C838.886 561.948 810.3 579.249 783.219 595.799C756.891 612.348 736.204 626.265 721.159 637.548C710.628 645.071 706.49 654.098 708.747 664.629L709.876 666.886C709.876 672.904 706.114 677.417 698.592 680.426ZM1019.05 846.296C1017.54 847.049 1015.29 847.425 1012.28 847.425C1008.52 847.425 1005.51 846.296 1003.25 844.04C998.738 835.765 991.591 821.848 981.812 802.29C972.785 782.732 963.758 762.797 954.731 742.487C945.704 722.176 938.934 707.131 934.421 697.352C932.164 693.591 932.164 690.582 934.421 688.325C936.677 686.068 939.31 684.564 942.319 683.811L979.555 680.426C987.078 678.922 995.353 677.793 1004.38 677.041C1013.41 676.289 1022.81 675.537 1032.59 674.784C1038.61 674.784 1043.5 672.528 1047.26 668.014C1051.77 663.501 1054.03 658.611 1054.03 653.345V607.082C1054.03 602.569 1051.77 599.184 1047.26 596.927C1043.5 594.67 1039.74 594.294 1035.97 595.799C996.857 616.862 956.988 635.668 916.367 652.217C875.746 668.766 835.5 683.435 795.631 696.223C794.879 696.223 794.127 696.6 793.375 697.352C793.375 697.352 792.999 697.352 792.246 697.352C787.733 697.352 783.972 694.719 780.963 689.453V684.94C780.963 679.674 783.219 675.913 787.733 673.656C823.841 657.107 861.453 635.668 900.57 609.339C939.686 582.258 976.923 553.297 1012.28 522.455C1048.39 491.613 1078.85 461.899 1103.68 433.314C1105.18 431.809 1105.93 429.552 1105.93 426.544C1105.93 420.526 1102.92 417.517 1096.91 417.517H1030.33C1010.02 417.517 990.839 417.893 972.785 418.645C954.731 419.397 940.063 420.149 928.779 420.902H926.522C914.486 420.902 906.588 414.884 902.826 402.848L899.441 389.307C899.441 385.546 900.946 382.161 903.955 379.152C906.964 376.143 910.725 375.015 915.238 375.767C928.027 377.271 944.952 378.776 966.015 380.28C987.83 381.785 1009.27 382.537 1030.33 382.537H1182.66C1188.68 382.537 1193.57 380.657 1197.33 376.895C1201.09 372.382 1202.97 367.492 1202.97 362.227C1202.22 329.88 1199.21 308.065 1193.95 296.781C1190.94 291.515 1190.56 286.25 1192.82 280.984C1195.83 277.975 1199.59 276.471 1204.1 276.471C1215.38 276.471 1230.81 277.975 1250.36 280.984C1269.92 283.241 1289.48 285.874 1309.04 288.883C1329.35 291.892 1344.39 294.524 1354.17 296.781C1363.2 299.038 1367.71 304.68 1367.71 313.707C1367.71 326.495 1361.7 333.641 1349.66 335.146C1341.39 335.898 1335.74 338.155 1332.73 341.916C1329.73 345.677 1328.22 351.319 1328.22 358.841V362.227C1328.22 367.492 1330.1 372.382 1333.86 376.895C1338.38 380.657 1343.27 382.537 1348.53 382.537H1457.98C1470.02 382.537 1478.29 379.152 1482.81 372.382C1486.57 366.364 1492.96 356.961 1501.99 344.173C1511.02 331.384 1517.03 322.358 1520.04 317.092C1523.05 311.826 1527.57 309.193 1533.58 309.193C1536.59 309.193 1540.35 310.322 1544.87 312.578C1553.14 317.092 1563.3 324.614 1575.33 335.146C1587.37 344.925 1599.03 355.08 1610.31 365.612C1621.6 376.143 1629.87 384.794 1635.14 391.564C1638.15 395.325 1639.65 399.463 1639.65 403.976C1639.65 413.003 1635.89 417.517 1628.37 417.517H1320.32C1315.06 417.517 1310.92 419.773 1307.91 424.287C1305.65 428.048 1305.28 432.185 1306.78 436.699C1315.06 461.523 1325.96 484.466 1339.5 505.529C1353.8 525.84 1369.97 544.646 1388.02 561.948C1391.03 564.957 1395.17 566.461 1400.44 566.461C1407.21 566.461 1412.1 563.828 1415.11 558.563C1424.88 542.765 1435.04 524.712 1445.57 504.401C1456.86 484.09 1466.26 465.66 1473.78 449.111L1482.81 428.8C1483.56 423.535 1486.19 420.902 1490.71 420.902C1492.21 420.149 1494.47 420.526 1497.48 422.03C1507.26 425.039 1521.17 431.057 1539.23 440.084C1557.28 449.111 1574.96 458.514 1592.26 468.293C1609.56 477.32 1621.97 484.09 1629.5 488.604C1634.01 491.613 1634.76 496.878 1631.75 504.401C1628.74 511.923 1624.23 514.932 1618.21 513.428C1615.95 512.676 1612.57 512.299 1608.06 512.299C1604.3 512.299 1600.16 513.052 1595.64 514.556C1591.88 516.061 1586.62 518.694 1579.85 522.455C1563.3 532.234 1542.99 543.142 1518.92 555.177C1494.84 567.213 1471.9 578.121 1450.08 587.9C1445.57 590.157 1443.31 593.542 1443.31 598.055C1443.31 601.817 1444.82 604.826 1447.83 607.082C1476.41 625.136 1506.5 640.181 1538.1 652.217C1569.69 663.501 1601.66 672.152 1634.01 678.17C1637.77 678.922 1640.03 681.179 1640.78 684.94C1641.53 687.949 1640.4 690.582 1637.39 692.838C1618.59 704.874 1600.53 721.424 1583.23 742.487C1565.93 762.797 1552.01 781.979 1541.48 800.033C1536.97 806.804 1530.58 810.189 1522.3 810.189C1519.29 810.189 1516.28 809.436 1513.27 807.932C1489.95 794.391 1466.63 777.842 1443.31 758.284C1420 739.478 1398.56 717.662 1379 692.838C1372.98 685.316 1365.46 681.555 1356.43 681.555C1354.17 681.555 1350.79 682.307 1346.28 683.811C1325.21 692.086 1299.64 702.241 1269.55 714.277C1240.21 725.561 1210.12 737.221 1179.28 749.257C1149.19 762.045 1121.35 773.705 1095.78 784.236C1070.95 794.768 1052.52 803.042 1040.49 809.06C1032.96 812.069 1028.45 815.078 1026.95 818.087C1026.19 821.848 1026.19 826.738 1026.95 832.756L1028.08 835.013C1028.08 837.269 1026.95 839.15 1024.69 840.655C1023.19 842.911 1021.31 844.792 1019.05 846.296ZM1197.33 662.372C1222.15 660.116 1245.85 658.235 1268.42 656.731C1290.99 654.474 1310.92 652.969 1328.22 652.217C1332.73 652.217 1336.12 650.336 1338.38 646.575C1340.63 642.062 1340.63 637.548 1338.38 633.035C1323.33 606.706 1310.54 578.497 1300.01 548.407C1289.48 517.565 1282.33 484.466 1278.57 449.111C1277.82 444.597 1275.56 441.588 1271.8 440.084C1268.79 438.579 1265.41 439.332 1261.65 442.341C1239.83 460.395 1216.89 478.825 1192.82 497.631C1182.29 505.905 1177.02 516.813 1177.02 530.353V643.19C1177.02 655.978 1183.79 662.372 1197.33 662.372ZM1432.03 234.721H1444.44C1450.46 234.721 1455.35 232.464 1459.11 227.951C1462.87 223.437 1464.75 218.548 1464.75 213.282V91.4182C1464.75 77.1255 1457.98 69.9792 1444.44 69.9792H1432.03C1417.74 69.9792 1410.59 77.1255 1410.59 91.4182V213.282C1410.59 218.548 1412.47 223.437 1416.23 227.951C1420.75 232.464 1426.01 234.721 1432.03 234.721ZM1113.83 234.721H1126.24C1132.26 234.721 1137.15 232.464 1140.91 227.951C1144.67 223.437 1146.55 218.548 1146.55 213.282V91.4182C1146.55 77.1255 1139.78 69.9792 1126.24 69.9792H1113.83C1100.29 69.9792 1093.52 77.1255 1093.52 91.4182V213.282C1093.52 218.548 1095.4 223.437 1099.16 227.951C1103.68 232.464 1108.57 234.721 1113.83 234.721ZM1271.8 234.721H1284.21C1290.23 234.721 1295.12 232.464 1298.88 227.951C1303.4 223.437 1305.65 218.548 1305.65 213.282V91.4182C1305.65 85.4002 1303.4 80.5106 1298.88 76.7494C1295.12 72.236 1290.23 69.9792 1284.21 69.9792H1271.8C1266.54 69.9792 1262.02 72.236 1258.26 76.7494C1254.5 80.5106 1252.62 85.4002 1252.62 91.4182V213.282C1252.62 218.548 1254.5 223.437 1258.26 227.951C1262.02 232.464 1266.54 234.721 1271.8 234.721Z" fill="#FBFBFB"/>
</g>
</g>
<defs>
<filter id="filter0_f_4021_163" x="-312.43" y="-526.34" width="1040.07" height="1052.49" filterUnits="userSpaceOnUse" color-interpolation-filters="sRGB">
<feFlood flood-opacity="0" result="BackgroundImageFix"/>
<feBlend mode="normal" in="SourceGraphic" in2="BackgroundImageFix" result="shape"/>
<feGaussianBlur stdDeviation="8" result="effect1_foregroundBlur_4021_163"/>
</filter>
<filter id="filter1_f_4021_163" x="599.194" y="-200.931" width="1050.71" height="1056.36" filterUnits="userSpaceOnUse" color-interpolation-filters="sRGB">
<feFlood flood-opacity="0" result="BackgroundImageFix"/>
<feBlend mode="normal" in="SourceGraphic" in2="BackgroundImageFix" result="shape"/>
<feGaussianBlur stdDeviation="4" result="effect1_foregroundBlur_4021_163"/>
</filter>
<clipPath id="clip0_4021_163">
<rect width="1366" height="640" fill="white"/>
</clipPath>
</defs>
</svg>
